<svg width="400" height="400" viewBox="0 0 400 400" fill="none" xmlns="http://www.w3.org/2000/svg">
<g opacity="0.9">
<path d="M360.295 143.34C360.504 138.611 360.461 133.21 357.868 129.054C356.775 127.303 355.264 126.02 353.402 125.209C353.376 122.683 353.361 120.156 353.333 117.63C353.325 116.959 352.891 116.496 352.297 116.27C349.604 115.246 346.911 114.222 344.218 113.197C343.986 113.109 343.774 113.088 343.581 113.112C343.585 111.192 343.589 109.271 343.593 107.35C343.594 106.9 343.334 106.322 342.895 106.132C337.958 103.996 333.021 101.859 328.083 99.7234C327.817 99.6084 327.559 99.5818 327.316 99.6097C327.369 97.0776 327.417 94.5454 327.47 92.0133C327.6 91.6389 327.6 91.2041 327.434 90.8257C327.27 90.2052 326.712 89.8872 326.134 89.8766C309.101 83.3015 291.515 77.8598 273.644 74.1047C256.738 70.5526 238.651 67.9025 221.882 73.4385C216.439 75.2353 211.182 77.8646 206.981 81.8206C206.269 82.4913 205.606 83.2059 204.966 83.9398C204.883 83.893 204.796 83.8512 204.703 83.8146C201.755 82.651 198.287 82.9628 195.536 84.519C189.322 77.1507 179.969 73.4725 170.766 71.5128C164.001 70.0723 157.033 70.0333 150.16 70.5364C141.994 71.1341 133.883 72.4847 125.878 74.1786C109.682 77.6056 93.7489 82.4401 78.2265 88.1765C76.7251 88.7313 75.2292 89.3006 73.7359 89.8768C73.1575 89.8874 72.5984 90.2057 72.4369 90.8287C72.2716 91.2061 72.272 91.6395 72.4005 92.0127C72.4539 94.5447 72.4976 97.0768 72.55 99.609C72.3087 99.582 72.0522 99.609 71.7881 99.7234C66.8508 101.86 61.9138 103.996 56.9766 106.132C56.5372 106.322 56.277 106.9 56.2778 107.35C56.2819 109.271 56.2861 111.191 56.2902 113.112C56.0978 113.088 55.8859 113.109 55.6535 113.198C52.9606 114.222 50.2674 115.246 47.5743 116.27C46.9796 116.496 46.5462 116.966 46.5387 117.63C46.51 120.158 46.4938 122.685 46.4671 125.213C42.4738 126.975 40.5696 130.952 39.9093 135.149C39.0476 140.625 39.7179 146.273 39.9153 151.775C40.4139 165.678 40.6192 179.589 40.6557 193.5C40.7285 221.335 40.1244 249.166 39.8314 276.998C39.759 283.878 39.7057 290.759 39.6863 297.64C39.6761 301.236 39.6752 304.833 39.6857 308.429C39.695 311.625 39.4539 314.955 39.8113 318.133C40.2589 322.114 42.8516 325.042 46.6627 326.177C50.3819 327.285 53.9937 326.471 57.6968 325.78C79.2131 321.769 100.934 318.522 122.813 317.418C144.206 316.338 166.411 317.005 186.955 323.646C189.117 324.345 191.252 325.125 193.361 325.971C196.299 328.843 200.43 331.344 204.096 328.201C204.562 327.802 204.966 327.345 205.364 326.88C205.505 326.714 205.641 326.544 205.786 326.381C205.893 326.262 206.429 325.803 206.079 326.033C208.153 324.669 210.805 323.781 213.111 322.883C223.761 318.74 235.123 316.689 246.491 315.891C270.816 314.183 295.259 317.666 319.183 321.752C325.029 322.75 330.866 323.801 336.704 324.847C339.506 325.35 342.308 325.851 345.112 326.343C346.835 326.646 348.546 326.834 350.296 326.674C354.22 326.314 357.986 324.532 359.477 320.663C360.546 317.89 360.158 314.622 360.173 311.712C360.191 307.96 360.196 304.207 360.191 300.454C360.148 270.585 359.427 240.722 359.249 210.853C359.16 195.847 359.207 180.84 359.547 165.837C359.717 158.335 359.965 150.836 360.295 143.34Z" fill="#321C27"/>
<path d="M199.696 86.0057C199.544 86.0311 199.392 86.0573 199.241 86.0895C198.932 86.1557 198.626 86.2371 198.324 86.334C198.152 86.3893 197.983 86.4532 197.813 86.5146C197.761 86.5357 197.747 86.5408 197.728 86.5486L197.528 86.6398C197.435 86.6839 197.349 86.7414 197.257 86.7889C198.346 88.3729 199.276 90.053 199.992 91.8262C200.837 89.8637 201.89 87.9991 203.128 86.2598C202.733 86.1425 202.332 86.0462 201.924 85.9868C201.848 85.9812 201.599 85.9544 201.565 85.9519C201.429 85.9423 201.294 85.9355 201.158 85.9314C200.797 85.9207 200.434 85.9308 200.074 85.9612C200.031 85.9646 199.69 86.0106 199.696 86.0057Z" fill="#5265AD"/>
<path d="M196.891 311.137C196.659 310.7 196.41 310.249 196.146 309.782C196.038 309.694 195.935 309.593 195.845 309.463C190.374 301.489 182.841 295.184 174.336 290.65C158.234 282.068 139.511 279.895 121.566 281.935C99.6561 284.426 78.8666 292.587 58.4774 300.554C57.6046 300.895 56.6934 300.032 56.6917 299.193C56.6615 285.166 56.6314 271.138 56.6012 257.11C56.5473 232.111 56.4936 207.112 56.4397 182.113C56.3921 160.062 56.3447 138.01 56.2971 115.959C53.9822 116.839 51.6668 117.72 49.352 118.6C49.1916 132.831 49.0589 147.062 48.9588 161.293C48.7771 187.115 48.6949 212.938 48.7122 238.761C48.729 263.924 48.8446 289.087 49.0498 314.248C60.5032 310.214 72.2097 306.939 84.0351 304.188C88.9607 303.042 93.9077 301.995 98.866 301.002C104.979 299.779 111.111 298.645 117.253 297.582C123.284 296.538 129.367 295.407 135.479 294.624C140.847 293.936 146.238 293.515 151.638 293.669C168.778 294.155 185.115 301.78 197.547 313.42C197.34 312.656 197.119 311.896 196.891 311.137Z" fill="#9CD0EB"/>
<path d="M198.834 318.654C192.171 311.624 184.154 305.882 175.3 301.938C166.081 297.831 156.177 296.125 146.116 296.53C134.897 296.981 123.728 299.257 112.699 301.236C90.7965 305.167 68.9944 310.04 48.0262 317.59C47.8176 317.665 47.6085 317.672 47.41 317.634C47.3921 317.631 47.374 317.628 47.3563 317.624C46.7416 317.478 46.2458 316.865 46.2406 316.229C46.119 301.675 46.0283 287.121 45.9697 272.566C45.8656 246.743 45.8609 220.92 45.9557 195.097C46.0374 172.862 46.2081 150.627 46.437 128.393C45.3358 129.143 44.5086 130.217 43.9028 131.449C41.8485 135.628 42.2875 140.718 42.4794 145.214C42.7659 151.93 42.9799 158.648 43.1348 165.368C43.4485 178.964 43.5203 192.564 43.4668 206.163C43.3597 233.373 42.7484 260.578 42.5569 287.788C42.509 294.59 42.4873 301.392 42.5064 308.194C42.5152 311.369 42.283 314.67 42.6002 317.829C42.7723 319.543 43.525 321.161 44.9037 322.227C47.2413 324.035 50.7018 324.228 53.4841 323.712C58.4017 322.8 63.3165 321.88 68.2466 321.036C89.8063 317.346 111.627 314.558 133.523 314.244C154.012 313.949 175.333 315.618 194.496 323.398C194.72 323.453 194.941 323.567 195.145 323.771C196.303 324.932 198.007 326.664 199.832 326.898V319.085C199.494 319.101 199.142 318.979 198.834 318.654Z" fill="#5265AD"/>
<path d="M154.401 280.499C161.826 282.1 169.088 284.682 175.766 288.27C169.929 284.655 162.829 281.777 154.263 280.472C154.309 280.482 154.355 280.489 154.401 280.499Z" fill="#9CD0EB"/>
<path d="M59.1903 149.433C59.2441 174.433 59.298 199.432 59.3519 224.431C59.4041 248.666 59.4563 272.902 59.5085 297.138C70.819 292.724 82.1679 288.363 93.8226 284.933C113.395 279.173 134.092 276.157 154.263 280.473C162.83 281.778 169.929 284.655 175.766 288.27C182.407 291.838 188.456 296.414 193.514 302.027C191.41 297.335 188.786 292.888 185.539 288.864C174.317 274.96 157.347 268.137 139.89 266.517C129.81 265.581 119.609 266.074 109.652 267.867C98.7528 269.829 87.9464 272.61 77.386 275.938C76.4959 276.219 75.6128 275.464 75.6003 274.578C75.412 261.135 75.2133 247.693 75.0041 234.251C74.6345 210.492 74.2322 186.734 73.7975 162.976C73.428 142.791 73.022 122.607 72.6056 102.422C68.1042 104.37 63.603 106.318 59.1016 108.266C59.1312 121.988 59.1606 135.711 59.1903 149.433Z" fill="#BFE5FB"/>
<path d="M196.548 310.015C196.406 309.965 196.272 309.884 196.146 309.782C196.41 310.249 196.659 310.7 196.891 311.137C196.779 310.763 196.666 310.388 196.548 310.015Z" fill="#BFE5FB"/>
<path d="M199.832 253.301V249.258C199.019 249.47 198.015 249.038 198.024 247.952C198.045 245.21 198.067 242.468 198.088 239.726C198.26 217.711 198.432 195.695 198.604 173.68C198.777 151.586 198.95 129.492 199.122 107.398C199.161 102.321 199.251 97.0775 197.179 92.3297C195.458 88.3868 192.604 85.0134 189.249 82.3559C185.48 79.3712 181.012 77.3406 176.45 75.9044C172.745 74.7384 168.906 73.8362 165.039 73.4273C158.007 72.6839 150.864 73.1331 143.862 73.9715C135.691 74.9501 127.597 76.5725 119.598 78.4862C104.534 82.0905 89.692 86.7691 75.229 92.3163C75.5038 105.397 75.7698 118.479 76.025 131.56C76.4888 155.317 76.9195 179.075 77.318 202.833C77.7082 226.114 78.0646 249.395 78.3926 272.677C89.8791 269.122 101.686 266.112 113.579 264.379C132.415 261.635 153.288 263.116 170.225 272.436C177.95 276.688 184.62 282.625 189.758 289.787C193.465 294.953 196.285 300.682 198.396 306.668C198.265 291.025 198.134 275.382 198.003 259.739C197.994 258.642 199.016 258.213 199.832 258.44V256.12C198.034 256.104 198.037 253.317 199.832 253.301Z" fill="#DDF1FD"/>
<path d="M351.094 195.097C351.001 169.597 350.808 144.098 350.521 118.6C348.205 117.72 345.89 116.839 343.575 115.958C343.551 127.117 343.527 138.275 343.503 149.433C343.449 174.432 343.395 199.431 343.341 224.431C343.288 249.351 343.234 274.272 343.18 299.193C343.178 300.031 342.267 300.894 341.394 300.553C329.834 296.036 318.25 291.53 306.353 287.966C287.149 282.214 266.775 278.952 246.906 283.074C230.111 286.559 213.904 295.067 204.026 309.463C203.854 309.714 203.639 309.877 203.409 309.977C203.357 310.068 203.305 310.161 203.255 310.251C202.927 311.296 202.624 312.349 202.338 313.406C208.407 307.723 215.401 302.977 222.977 299.578C232.261 295.413 242.203 293.415 252.376 293.663C256.802 293.771 261.221 294.187 265.628 294.767C272.66 295.694 279.659 297.045 286.597 298.279C290.934 299.05 295.268 299.858 299.593 300.713C316.938 304.144 334.135 308.369 350.822 314.246C350.935 300.353 351.024 286.459 351.08 272.565C351.184 246.743 351.189 220.92 351.094 195.097Z" fill="#BFE5FB"/>
<path d="M356.392 201.942C356.364 187.405 356.493 172.868 356.92 158.337C357.026 154.743 357.15 151.15 357.295 147.557C357.41 144.682 357.635 141.796 357.514 138.917C357.362 135.297 356.663 130.543 353.431 128.387C353.544 139.356 353.657 150.324 353.734 161.293C353.916 187.115 353.998 212.938 353.981 238.761C353.964 264.584 353.846 290.407 353.631 316.229C353.625 316.935 353.014 317.605 352.307 317.647C352.3 317.647 352.293 317.648 352.287 317.648C352.141 317.654 351.994 317.643 351.845 317.59C340.04 313.339 327.954 309.923 315.742 307.061C304.966 304.537 294.096 302.436 283.195 300.533C272.123 298.6 260.9 296.352 249.615 296.464C231.133 296.647 213.642 305.354 201.037 318.655C200.697 319.013 200.304 319.121 199.935 319.071C199.901 319.076 199.867 319.083 199.832 319.085V326.898C200.108 326.934 200.386 326.937 200.665 326.897C201.696 326.75 202.456 325.94 203.185 325.102C204.148 323.992 204.972 323.409 206.329 322.762C211.242 320.422 216.375 318.552 221.622 317.113C232.491 314.134 243.806 312.917 255.052 312.688C278.704 312.206 302.269 315.918 325.495 319.995C331.13 320.985 336.759 322.008 342.392 323.009C346 323.651 349.757 324.599 353.323 323.137C354.828 322.52 356.112 321.432 356.757 319.913C357.265 318.715 357.314 317.449 357.324 316.169C357.337 314.371 357.348 312.572 357.356 310.774C357.387 303.582 357.371 296.389 357.324 289.196C357.135 260.11 356.448 231.029 356.392 201.942Z" fill="#3A3C8A"/>
<path d="M327.259 102.419C327.059 112.133 326.857 121.846 326.668 131.56C326.205 155.317 325.774 179.075 325.375 202.833C324.974 226.747 324.607 250.662 324.271 274.578C324.259 275.464 323.376 276.219 322.486 275.938C310.753 272.24 298.684 269.12 286.518 267.246C276.707 265.735 266.515 265.617 256.67 266.881C247.952 268 239.303 270.433 231.545 274.614C224.062 278.647 217.51 284.297 212.55 291.211C210.138 294.573 208.132 298.17 206.44 301.911C211.2 296.636 216.873 292.23 223.115 288.772C223.298 288.67 223.473 288.558 223.657 288.458C230.697 284.64 238.25 282.004 246.031 280.388C256.318 278.252 267.003 277.905 277.437 279.018C299.309 281.351 320.009 289.194 340.363 297.138C340.392 283.795 340.421 270.452 340.45 257.11C340.503 232.111 340.557 207.111 340.611 182.112C340.664 157.496 340.717 132.881 340.77 108.265C336.267 106.316 331.763 104.368 327.259 102.419Z" fill="#DDF1FD"/>
<path d="M203.335 310.013C203.31 310.093 203.28 310.171 203.255 310.252C203.305 310.161 203.357 310.069 203.409 309.977C203.384 309.988 203.36 310.004 203.335 310.013Z" fill="#DDF1FD"/>
<path d="M298.722 83.4842C289.637 80.754 280.445 78.3483 271.146 76.4644C262.656 74.7447 254.04 73.4171 245.372 73.1223C228.245 72.5396 206.507 77.7977 201.339 96.4833C201.357 96.5785 201.382 96.6712 201.398 96.767C202.293 102.037 201.942 107.484 201.901 112.804C201.725 135.289 201.549 157.775 201.374 180.261C201.198 202.824 201.021 225.388 200.845 247.952C200.839 248.683 200.378 249.114 199.832 249.257V253.301C199.837 253.301 199.841 253.3 199.846 253.3C201.665 253.3 201.662 256.121 199.846 256.121C199.841 256.121 199.837 256.119 199.832 256.119V258.44C200.369 258.589 200.818 259.019 200.824 259.739C200.957 275.627 201.091 291.515 201.224 307.404C203.739 300.088 207.306 293.164 212.166 287.082C223.719 272.628 241.334 265.54 259.375 263.753C269.67 262.733 280.102 263.235 290.283 265.023C300.814 266.873 311.257 269.522 321.478 272.677C321.658 259.868 321.847 247.059 322.046 234.25C322.416 210.492 322.818 186.733 323.253 162.976C323.683 139.423 324.148 115.871 324.643 92.32C316.118 89.0529 307.466 86.1115 298.722 83.4842Z" fill="#EEF8FE"/>
<path d="M94.7004 113.616C94.9038 112.286 96.413 111.968 97.5834 112.033C99.5406 112.141 101.36 113.082 103.356 112.977C106.59 112.807 108.442 110.252 110.744 108.364C111.684 107.593 112.714 107.041 113.954 107.327C115.427 107.667 116.668 108.708 118.015 109.348C119.37 109.993 120.834 110.376 122.299 109.856C124.018 109.246 124.88 107.519 126.489 106.745C127.924 106.055 129.673 105.998 131.158 106.57C132.696 107.163 133.639 108.631 135.148 109.269C136.841 109.985 138.408 109.31 139.624 108.059C140.787 106.862 141.789 105.885 143.508 105.581C145.048 105.309 146.643 105.647 147.914 106.561C149.294 107.554 150.467 108.82 152.309 108.768C153.999 108.721 155.287 107.567 156.43 106.45C157.549 105.356 158.643 104.501 160.262 104.366C162.103 104.213 163.73 104.926 164.936 106.296C166.4 107.961 167.865 108.792 170.124 108.215C171.177 107.946 172.107 107.568 173.217 107.656C174.223 107.737 175.191 108.111 176.07 108.592C177.987 109.642 179.578 111.172 181.097 112.72C182.371 114.018 184.365 112.023 183.092 110.725C180.42 108.003 177.216 105.102 173.217 104.835C172.303 104.774 171.383 104.911 170.503 105.152C169.554 105.413 168.591 105.959 167.751 105.21C167.076 104.609 166.589 103.848 165.874 103.28C165.184 102.731 164.425 102.319 163.597 102.015C162.031 101.441 160.25 101.382 158.639 101.796C156.937 102.232 155.666 103.252 154.435 104.455C153.899 104.979 153.28 105.707 152.523 105.902C151.708 106.113 151.005 105.445 150.419 104.974C149.04 103.864 147.654 103.04 145.874 102.782C144.117 102.528 142.358 102.789 140.748 103.538C140.013 103.881 139.336 104.349 138.736 104.895C138.165 105.416 137.664 106.313 136.957 106.65C136.225 106.999 135.561 106.258 135.045 105.81C134.316 105.177 133.584 104.58 132.701 104.175C131.093 103.436 129.335 103.221 127.591 103.493C125.852 103.763 124.283 104.577 123.024 105.8C122.453 106.354 121.905 107.144 121.068 107.279C120.37 107.393 119.637 107.024 119.038 106.712C116.198 105.234 113.535 103.441 110.352 105.213C108.857 106.045 107.705 107.371 106.447 108.502C104.959 109.84 103.557 110.408 101.534 109.984C99.5031 109.557 97.5645 108.894 95.4852 109.443C93.8105 109.885 92.2544 111.07 91.98 112.866C91.7084 114.642 94.4266 115.408 94.7004 113.616Z" fill="#321C27"/>
<path d="M173.216 122.484C172.302 122.423 171.382 122.56 170.502 122.801C169.554 123.062 168.59 123.608 167.751 122.859C167.076 122.258 166.589 121.497 165.874 120.929C165.183 120.38 164.424 119.968 163.596 119.664C162.031 119.089 160.249 119.031 158.639 119.444C156.936 119.881 155.665 120.901 154.434 122.104C153.898 122.628 153.28 123.356 152.523 123.551C151.707 123.762 151.005 123.094 150.419 122.623C149.04 121.513 147.654 120.689 145.873 120.431C144.117 120.177 142.357 120.438 140.748 121.187C140.012 121.53 139.335 121.998 138.736 122.544C138.165 123.065 137.663 123.962 136.957 124.299C136.225 124.648 135.56 123.907 135.044 123.459C134.316 122.825 133.584 122.229 132.701 121.823C131.093 121.084 129.334 120.87 127.59 121.141C125.852 121.412 124.283 122.225 123.024 123.448C122.453 124.003 121.904 124.792 121.068 124.928C120.369 125.041 119.637 124.672 119.037 124.36C116.198 122.882 113.535 121.09 110.352 122.862C108.857 123.694 107.704 125.019 106.446 126.151C104.958 127.489 103.557 128.057 101.533 127.632C99.5026 127.206 97.564 126.543 95.4847 127.092C93.81 127.533 92.254 128.719 91.9795 130.515C91.7079 132.291 94.4261 133.057 94.7 131.265C94.9033 129.935 96.4125 129.617 97.5829 129.682C99.5401 129.79 101.359 130.731 103.356 130.626C106.589 130.456 108.441 127.901 110.743 126.013C111.684 125.242 112.714 124.69 113.953 124.976C115.426 125.316 116.668 126.357 118.014 126.997C119.37 127.643 120.834 128.025 122.299 127.505C124.017 126.895 124.879 125.168 126.488 124.394C127.924 123.704 129.673 123.647 131.157 124.219C132.695 124.812 133.638 126.28 135.148 126.918C136.841 127.634 138.408 126.959 139.624 125.708C140.787 124.512 141.789 123.534 143.507 123.231C145.048 122.958 146.643 123.296 147.914 124.21C149.294 125.203 150.466 126.469 152.309 126.418C153.999 126.37 155.287 125.216 156.429 124.099C157.548 123.005 158.642 122.151 160.261 122.016C162.103 121.862 163.729 122.575 164.935 123.946C166.4 125.61 167.865 126.442 170.124 125.864C171.176 125.595 172.107 125.218 173.216 125.306C174.222 125.386 175.191 125.76 176.07 126.242C177.986 127.292 179.577 128.821 181.097 130.37C182.37 131.668 184.365 129.672 183.091 128.375C180.42 125.652 177.215 122.751 173.216 122.484Z" fill="#321C27"/>
<path d="M173.216 140.133C172.302 140.072 171.382 140.208 170.502 140.45C169.554 140.711 168.59 141.257 167.751 140.508C167.076 139.906 166.589 139.146 165.874 138.578C165.183 138.029 164.424 137.616 163.596 137.312C162.031 136.738 160.249 136.68 158.639 137.093C156.936 137.529 155.665 138.549 154.434 139.753C153.898 140.276 153.28 141.004 152.523 141.2C151.707 141.411 151.005 140.743 150.419 140.271C149.04 139.162 147.654 138.338 145.873 138.08C144.117 137.825 142.357 138.086 140.748 138.836C140.012 139.178 139.335 139.647 138.736 140.193C138.165 140.713 137.663 141.611 136.957 141.948C136.225 142.297 135.56 141.555 135.044 141.107C134.316 140.474 133.584 139.878 132.701 139.472C131.093 138.733 129.334 138.519 127.59 138.79C125.852 139.061 124.283 139.874 123.024 141.097C122.453 141.651 121.904 142.441 121.068 142.577C120.369 142.69 119.637 142.321 119.037 142.009C116.198 140.531 113.535 138.739 110.352 140.511C108.857 141.343 107.704 142.668 106.446 143.799C104.958 145.138 103.557 145.706 101.533 145.281C99.5026 144.854 97.564 144.192 95.4847 144.74C93.81 145.182 92.254 146.368 91.9795 148.164C91.7079 149.94 94.4261 150.706 94.7 148.914C94.9033 147.584 96.4125 147.265 97.5829 147.33C99.5401 147.439 101.359 148.38 103.356 148.275C106.589 148.105 108.441 145.55 110.743 143.662C111.684 142.891 112.714 142.339 113.953 142.625C115.426 142.964 116.668 144.005 118.014 144.646C119.37 145.291 120.834 145.673 122.299 145.154C124.017 144.544 124.879 142.817 126.488 142.043C127.924 141.352 129.673 141.296 131.157 141.868C132.695 142.461 133.638 143.929 135.148 144.567C136.841 145.283 138.408 144.607 139.624 143.357C140.787 142.16 141.789 141.183 143.507 140.879C145.048 140.607 146.643 140.945 147.914 141.859C149.294 142.851 150.466 144.118 152.309 144.066C153.999 144.019 155.287 142.864 156.429 141.748C157.548 140.654 158.642 139.799 160.261 139.664C162.103 139.511 163.729 140.224 164.935 141.594C166.4 143.258 167.865 144.09 170.124 143.512C171.176 143.243 172.107 142.866 173.216 142.954C174.222 143.034 175.191 143.408 176.07 143.89C177.986 144.94 179.577 146.47 181.097 148.018C182.37 149.316 184.365 147.321 183.091 146.023C180.42 143.3 177.215 140.4 173.216 140.133Z" fill="#321C27"/>
<path d="M173.216 157.782C172.302 157.721 171.382 157.858 170.502 158.099C169.554 158.36 168.59 158.906 167.751 158.157C167.076 157.556 166.589 156.795 165.874 156.227C165.183 155.678 164.424 155.265 163.596 154.962C162.031 154.387 160.249 154.329 158.639 154.742C156.936 155.179 155.665 156.198 154.434 157.402C153.898 157.925 153.28 158.653 152.523 158.849C151.707 159.06 151.005 158.392 150.419 157.921C149.04 156.811 147.654 155.987 145.873 155.729C144.117 155.475 142.357 155.736 140.748 156.485C140.012 156.827 139.335 157.296 138.736 157.842C138.165 158.362 137.663 159.26 136.957 159.597C136.225 159.945 135.56 159.204 135.044 158.756C134.316 158.123 133.584 157.527 132.701 157.121C131.093 156.382 129.334 156.168 127.59 156.439C125.852 156.71 124.283 157.523 123.024 158.746C122.453 159.301 121.904 160.09 121.068 160.226C120.369 160.339 119.637 159.97 119.037 159.658C116.198 158.18 113.535 156.388 110.352 158.159C108.857 158.992 107.704 160.317 106.446 161.448C104.958 162.786 103.557 163.355 101.533 162.93C99.5026 162.503 97.564 161.841 95.4847 162.389C93.81 162.831 92.254 164.017 91.9795 165.813C91.7079 167.589 94.4261 168.355 94.7 166.563C94.9033 165.233 96.4125 164.914 97.5829 164.979C99.5401 165.088 101.359 166.028 103.356 165.924C106.589 165.754 108.441 163.199 110.743 161.311C111.684 160.54 112.714 159.987 113.953 160.274C115.426 160.613 116.668 161.654 118.014 162.295C119.37 162.94 120.834 163.322 122.299 162.802C124.017 162.192 124.879 160.465 126.488 159.692C127.924 159.001 129.673 158.945 131.157 159.517C132.695 160.109 133.638 161.577 135.148 162.216C136.841 162.931 138.408 162.256 139.624 161.006C140.787 159.809 141.789 158.832 143.507 158.528C145.048 158.256 146.643 158.594 147.914 159.508C149.294 160.5 150.466 161.767 152.309 161.715C153.999 161.668 155.287 160.513 156.429 159.397C157.548 158.303 158.642 157.448 160.261 157.313C162.103 157.16 163.729 157.873 164.935 159.243C166.4 160.907 167.865 161.739 170.124 161.161C171.176 160.892 172.107 160.515 173.216 160.603C174.222 160.683 175.191 161.058 176.07 161.539C177.986 162.589 179.577 164.119 181.097 165.667C182.37 166.965 184.365 164.97 183.091 163.672C180.42 160.949 177.215 158.049 173.216 157.782Z" fill="#321C27"/>
<path d="M173.216 175.431C172.302 175.37 171.382 175.507 170.502 175.748C169.554 176.009 168.59 176.555 167.751 175.806C167.076 175.205 166.589 174.444 165.874 173.876C165.183 173.327 164.424 172.914 163.596 172.611C162.031 172.036 160.249 171.978 158.639 172.391C156.936 172.828 155.665 173.847 154.434 175.051C153.898 175.575 153.28 176.302 152.523 176.498C151.707 176.708 151.005 176.041 150.419 175.569C149.04 174.46 147.654 173.636 145.873 173.378C144.117 173.123 142.357 173.384 140.748 174.134C140.012 174.476 139.335 174.944 138.736 175.491C138.165 176.011 137.663 176.908 136.957 177.245C136.225 177.594 135.56 176.853 135.044 176.405C134.316 175.772 133.584 175.176 132.701 174.77C131.093 174.031 129.334 173.816 127.59 174.088C125.852 174.359 124.283 175.172 123.024 176.395C122.453 176.949 121.904 177.739 121.068 177.875C120.369 177.988 119.637 177.619 119.037 177.307C116.198 175.829 113.535 174.037 110.352 175.808C108.857 176.641 107.704 177.966 106.446 179.097C104.958 180.435 103.557 181.004 101.533 180.579C99.5026 180.152 97.564 179.49 95.4847 180.038C93.81 180.48 92.254 181.666 91.9795 183.462C91.7079 185.238 94.4261 186.004 94.7 184.212C94.9033 182.881 96.4125 182.563 97.5829 182.628C99.5401 182.737 101.359 183.678 103.356 183.573C106.589 183.403 108.441 180.848 110.743 178.96C111.684 178.189 112.714 177.636 113.953 177.923C115.426 178.262 116.668 179.303 118.014 179.944C119.37 180.589 120.834 180.971 122.299 180.451C124.017 179.842 124.879 178.114 126.488 177.341C127.924 176.65 129.673 176.594 131.157 177.166C132.695 177.759 133.638 179.227 135.148 179.865C136.841 180.581 138.408 179.905 139.624 178.655C140.787 177.458 141.789 176.481 143.507 176.177C145.048 175.905 146.643 176.243 147.914 177.157C149.294 178.15 150.466 179.416 152.309 179.364C153.999 179.317 155.287 178.162 156.429 177.046C157.548 175.952 158.642 175.097 160.261 174.962C162.103 174.809 163.729 175.522 164.935 176.892C166.4 178.556 167.865 179.388 170.124 178.811C171.176 178.542 172.107 178.164 173.216 178.252C174.222 178.332 175.191 178.707 176.07 179.188C177.986 180.238 179.577 181.768 181.097 183.316C182.37 184.614 184.365 182.619 183.091 181.321C180.42 178.598 177.215 175.698 173.216 175.431Z" fill="#321C27"/>
<path d="M173.216 193.08C172.302 193.019 171.382 193.155 170.502 193.397C169.554 193.657 168.59 194.204 167.751 193.455C167.076 192.854 166.589 192.093 165.874 191.525C165.183 190.976 164.424 190.564 163.596 190.26C162.031 189.685 160.249 189.627 158.639 190.04C156.936 190.477 155.665 191.496 154.434 192.7C153.898 193.224 153.28 193.952 152.523 194.147C151.707 194.358 151.005 193.69 150.419 193.219C149.04 192.109 147.654 191.285 145.873 191.027C144.117 190.773 142.357 191.034 140.748 191.783C140.012 192.126 139.335 192.594 138.736 193.14C138.165 193.661 137.663 194.558 136.957 194.895C136.225 195.244 135.56 194.503 135.044 194.055C134.316 193.421 133.584 192.825 132.701 192.419C131.093 191.68 129.334 191.466 127.59 191.737C125.852 192.008 124.283 192.821 123.024 194.044C122.453 194.599 121.904 195.388 121.068 195.524C120.369 195.637 119.637 195.269 119.037 194.956C116.198 193.478 113.535 191.686 110.352 193.458C108.857 194.29 107.704 195.615 106.446 196.746C104.958 198.085 103.557 198.653 101.533 198.228C99.5026 197.801 97.564 197.139 95.4847 197.687C93.81 198.129 92.254 199.315 91.9795 201.111C91.7079 202.887 94.4261 203.653 94.7 201.861C94.9033 200.531 96.4125 200.213 97.5829 200.277C99.5401 200.386 101.359 201.327 103.356 201.222C106.589 201.052 108.441 198.497 110.743 196.609C111.684 195.838 112.714 195.286 113.953 195.572C115.426 195.912 116.668 196.952 118.014 197.593C119.37 198.238 120.834 198.621 122.299 198.101C124.017 197.491 124.879 195.764 126.488 194.99C127.924 194.3 129.673 194.243 131.157 194.815C132.695 195.408 133.638 196.876 135.148 197.514C136.841 198.23 138.408 197.555 139.624 196.304C140.787 195.108 141.789 194.13 143.507 193.827C145.048 193.554 146.643 193.892 147.914 194.806C149.294 195.799 150.466 197.065 152.309 197.014C153.999 196.966 155.287 195.812 156.429 194.695C157.548 193.601 158.642 192.746 160.261 192.611C162.103 192.458 163.729 193.171 164.935 194.542C166.4 196.206 167.865 197.037 170.124 196.46C171.176 196.191 172.107 195.813 173.216 195.902C174.222 195.982 175.191 196.356 176.07 196.837C177.986 197.887 179.577 199.417 181.097 200.965C182.37 202.264 184.365 200.268 183.091 198.971C180.42 196.247 177.215 193.347 173.216 193.08Z" fill="#321C27"/>
<path d="M129.208 209.326C127.226 209.442 125.366 210.302 123.736 211.392C122.315 212.343 121.285 213.462 119.513 212.732C118.1 212.149 116.885 211.194 115.43 210.681C111.746 209.382 109.134 211.791 106.659 214.151C105.618 215.144 104.46 216.05 103.187 216.002C101.971 215.956 100.768 215.625 99.5712 215.431C96.5488 214.94 92.5952 214.933 91.9795 218.76C91.6936 220.536 94.412 221.3 94.7 219.51C94.8555 218.543 95.2023 218.116 96.1886 217.991C97.3722 217.842 98.6235 218.109 99.7826 218.32C102.465 218.809 104.732 219.208 107.089 217.478C109.181 215.942 111.169 212.496 114.173 213.244C116.923 213.929 118.931 216.509 122.026 215.672C123.948 215.152 125.358 213.477 127.179 212.689C129.36 211.746 131.354 212.131 133.093 213.737C134.426 214.967 136.426 212.977 135.088 211.742C133.464 210.243 131.475 209.194 129.208 209.326Z" fill="#321C27"/>
<path d="M300.723 109.601C298.901 110.033 297.163 110.554 295.467 109.49C294.206 108.699 293.23 107.521 292.114 106.551C291.03 105.609 289.823 104.764 288.381 104.509C286.747 104.219 285.218 104.742 283.783 105.495C282.607 106.112 281.079 107.45 279.663 107.292C278.847 107.2 278.298 106.472 277.757 105.931C277.116 105.29 276.402 104.715 275.586 104.309C272.242 102.645 268.514 103.308 265.739 105.693C265.234 106.127 264.536 106.949 263.802 106.698C263.055 106.443 262.481 105.413 261.915 104.895C260.657 103.744 259.073 103.023 257.39 102.782C255.695 102.538 253.976 102.76 252.42 103.486C251.661 103.84 251.011 104.339 250.364 104.865C249.753 105.362 248.991 106.125 248.128 105.902C247.421 105.72 246.837 105.06 246.335 104.571C245.704 103.956 245.082 103.338 244.353 102.837C242.99 101.901 241.24 101.464 239.597 101.533C237.642 101.614 235.728 102.34 234.295 103.688C233.672 104.274 233.097 105.426 232.21 105.599C231.206 105.794 229.882 105.024 228.866 104.893C224.326 104.308 220.504 107.724 217.559 110.725C216.287 112.022 218.28 114.019 219.554 112.72C221.933 110.296 225.27 106.932 229.024 107.771C230.916 108.195 232.603 108.96 234.356 107.654C235.704 106.649 236.41 105.18 238.103 104.632C239.501 104.18 241.082 104.249 242.39 104.944C243.822 105.706 244.719 107.179 246.096 108.036C247.557 108.945 249.246 108.976 250.728 108.093C252.168 107.236 253.156 105.98 254.869 105.617C256.378 105.297 258.025 105.586 259.318 106.432C260.623 107.285 261.351 108.807 262.875 109.366C264.646 110.015 266.166 109.041 267.469 107.921C268.766 106.805 270.11 106.13 271.865 106.19C273.664 106.251 274.918 107.106 276.152 108.325C277.39 109.547 278.795 110.314 280.57 110.044C282.065 109.817 283.364 108.96 284.658 108.232C285.799 107.591 287.064 106.924 288.385 107.417C289.779 107.936 290.831 109.219 291.892 110.205C293.046 111.276 294.316 112.311 295.858 112.749C298.13 113.395 300.26 112.463 302.478 112.102C303.749 111.896 305.713 112.063 305.95 113.616C306.224 115.405 308.943 114.645 308.671 112.866C308.103 109.152 303.569 108.926 300.723 109.601Z" fill="#321C27"/>
<path d="M300.723 127.251C298.901 127.683 297.163 128.204 295.467 127.139C294.206 126.348 293.23 125.17 292.114 124.2C291.03 123.258 289.823 122.413 288.381 122.158C286.747 121.868 285.218 122.391 283.783 123.144C282.607 123.761 281.079 125.099 279.663 124.941C278.847 124.85 278.298 124.121 277.757 123.581C277.116 122.939 276.402 122.364 275.586 121.958C272.242 120.294 268.514 120.958 265.739 123.342C265.234 123.776 264.536 124.598 263.802 124.347C263.055 124.092 262.481 123.062 261.915 122.544C260.657 121.393 259.073 120.672 257.39 120.431C255.695 120.188 253.976 120.41 252.42 121.135C251.661 121.489 251.011 121.988 250.364 122.515C249.753 123.011 248.991 123.774 248.128 123.551C247.421 123.369 246.837 122.709 246.335 122.22C245.704 121.605 245.082 120.987 244.353 120.486C242.99 119.551 241.24 119.113 239.597 119.182C237.642 119.263 235.728 119.989 234.295 121.337C233.672 121.923 233.097 123.075 232.21 123.247C231.206 123.443 229.882 122.673 228.866 122.542C224.326 121.957 220.504 125.373 217.559 128.374C216.287 129.671 218.28 131.668 219.554 130.369C221.933 127.945 225.27 124.581 229.024 125.42C230.916 125.843 232.603 126.608 234.356 125.303C235.704 124.298 236.41 122.829 238.103 122.281C239.501 121.828 241.082 121.898 242.39 122.593C243.822 123.354 244.719 124.828 246.096 125.685C247.557 126.594 249.246 126.624 250.728 125.742C252.168 124.885 253.156 123.628 254.869 123.265C256.378 122.946 258.025 123.235 259.318 124.08C260.623 124.933 261.351 126.456 262.875 127.014C264.646 127.663 266.166 126.69 267.469 125.569C268.766 124.453 270.11 123.778 271.865 123.838C273.664 123.9 274.918 124.755 276.152 125.974C277.39 127.196 278.795 127.962 280.57 127.693C282.065 127.466 283.364 126.609 284.658 125.881C285.799 125.24 287.064 124.573 288.385 125.066C289.779 125.585 290.831 126.868 291.892 127.854C293.046 128.925 294.316 129.959 295.858 130.398C298.13 131.044 300.26 130.112 302.478 129.751C303.749 129.545 305.713 129.712 305.95 131.265C306.224 133.054 308.943 132.294 308.671 130.515C308.103 126.801 303.569 126.575 300.723 127.251Z" fill="#321C27"/>
<path d="M300.723 144.899C298.901 145.331 297.163 145.852 295.467 144.788C294.206 143.997 293.23 142.819 292.114 141.849C291.03 140.907 289.823 140.062 288.381 139.807C286.747 139.517 285.218 140.04 283.783 140.793C282.607 141.41 281.079 142.748 279.663 142.59C278.847 142.498 278.298 141.769 277.757 141.229C277.116 140.588 276.402 140.012 275.586 139.607C272.242 137.943 268.514 138.606 265.739 140.991C265.234 141.425 264.536 142.247 263.802 141.996C263.055 141.741 262.481 140.711 261.915 140.193C260.657 139.042 259.073 138.321 257.39 138.08C255.695 137.836 253.976 138.058 252.42 138.784C251.661 139.138 251.011 139.637 250.364 140.163C249.753 140.66 248.991 141.423 248.128 141.2C247.421 141.017 246.837 140.358 246.335 139.869C245.704 139.254 245.082 138.636 244.353 138.135C242.99 137.199 241.24 136.762 239.597 136.83C237.642 136.912 235.728 137.638 234.295 138.986C233.672 139.571 233.097 140.724 232.21 140.896C231.206 141.091 229.882 140.321 228.866 140.19C224.326 139.606 220.504 143.022 217.559 146.023C216.287 147.32 218.28 149.316 219.554 148.018C221.933 145.594 225.27 142.229 229.024 143.069C230.916 143.492 232.603 144.257 234.356 142.952C235.704 141.947 236.41 140.478 238.103 139.93C239.501 139.477 241.082 139.547 242.39 140.242C243.822 141.003 244.719 142.477 246.096 143.334C247.557 144.243 249.246 144.274 250.728 143.391C252.168 142.534 253.156 141.277 254.869 140.914C256.378 140.595 258.025 140.884 259.318 141.729C260.623 142.583 261.351 144.105 262.875 144.664C264.646 145.313 266.166 144.339 267.469 143.218C268.766 142.102 270.11 141.427 271.865 141.487C273.664 141.549 274.918 142.404 276.152 143.623C277.39 144.845 278.795 145.611 280.57 145.342C282.065 145.115 283.364 144.258 284.658 143.53C285.799 142.889 287.064 142.222 288.385 142.714C289.779 143.234 290.831 144.517 291.892 145.503C293.046 146.574 294.316 147.609 295.858 148.047C298.13 148.693 300.26 147.761 302.478 147.4C303.749 147.194 305.713 147.361 305.95 148.914C306.224 150.703 308.943 149.943 308.671 148.164C308.103 144.45 303.569 144.225 300.723 144.899Z" fill="#321C27"/>
<path d="M300.723 162.548C298.901 162.98 297.163 163.501 295.467 162.437C294.206 161.646 293.23 160.468 292.114 159.498C291.03 158.556 289.823 157.711 288.381 157.456C286.747 157.166 285.218 157.689 283.783 158.442C282.607 159.059 281.079 160.397 279.663 160.238C278.847 160.147 278.298 159.418 277.757 158.878C277.116 158.237 276.402 157.661 275.586 157.256C272.242 155.592 268.514 156.255 265.739 158.64C265.234 159.074 264.536 159.896 263.802 159.645C263.055 159.39 262.481 158.36 261.915 157.842C260.657 156.691 259.073 155.97 257.39 155.729C255.695 155.485 253.976 155.707 252.42 156.433C251.661 156.787 251.011 157.286 250.364 157.812C249.753 158.309 248.991 159.072 248.128 158.849C247.421 158.666 246.837 158.007 246.335 157.518C245.704 156.903 245.082 156.285 244.353 155.784C242.99 154.848 241.24 154.411 239.597 154.479C237.642 154.561 235.728 155.287 234.295 156.635C233.672 157.221 233.097 158.373 232.21 158.546C231.206 158.741 229.882 157.971 228.866 157.84C224.326 157.255 220.504 160.671 217.559 163.672C216.287 164.969 218.28 166.966 219.554 165.667C221.933 163.243 225.27 159.879 229.024 160.718C230.916 161.142 232.603 161.907 234.356 160.601C235.704 159.596 236.41 158.127 238.103 157.579C239.501 157.127 241.082 157.196 242.39 157.891C243.822 158.652 244.719 160.126 246.096 160.983C247.557 161.892 249.246 161.923 250.728 161.04C252.168 160.183 253.156 158.926 254.869 158.563C256.378 158.244 258.025 158.533 259.318 159.379C260.623 160.232 261.351 161.754 262.875 162.313C264.646 162.962 266.166 161.988 267.469 160.867C268.766 159.751 270.11 159.076 271.865 159.136C273.664 159.197 274.918 160.053 276.152 161.272C277.39 162.494 278.795 163.26 280.57 162.991C282.065 162.764 283.364 161.907 284.658 161.179C285.799 160.538 287.064 159.871 288.385 160.363C289.779 160.883 290.831 162.166 291.892 163.152C293.046 164.223 294.316 165.257 295.858 165.696C298.13 166.341 300.26 165.409 302.478 165.049C303.749 164.842 305.713 165.01 305.95 166.563C306.224 168.352 308.943 167.592 308.671 165.812C308.103 162.099 303.569 161.873 300.723 162.548Z" fill="#321C27"/>
<path d="M300.723 180.197C298.901 180.629 297.163 181.15 295.467 180.086C294.206 179.295 293.23 178.117 292.114 177.147C291.03 176.205 289.823 175.36 288.381 175.105C286.747 174.815 285.218 175.338 283.783 176.091C282.607 176.708 281.079 178.046 279.663 177.888C278.847 177.797 278.298 177.068 277.757 176.528C277.116 175.887 276.402 175.311 275.586 174.905C272.242 173.241 268.514 173.905 265.739 176.29C265.234 176.723 264.536 177.545 263.802 177.295C263.055 177.039 262.481 176.009 261.915 175.491C260.657 174.34 259.073 173.619 257.39 173.378C255.695 173.135 253.976 173.357 252.42 174.082C251.661 174.436 251.011 174.936 250.364 175.462C249.753 175.959 248.991 176.721 248.128 176.499C247.421 176.316 246.837 175.657 246.335 175.168C245.704 174.552 245.082 173.935 244.353 173.434C242.99 172.498 241.24 172.06 239.597 172.129C237.642 172.21 235.728 172.936 234.295 174.284C233.672 174.87 233.097 176.022 232.21 176.195C231.206 176.39 229.882 175.62 228.866 175.489C224.326 174.905 220.504 178.321 217.559 181.321C216.287 182.618 218.28 184.615 219.554 183.316C221.933 180.892 225.27 177.528 229.024 178.368C230.916 178.791 232.603 179.556 234.356 178.25C235.704 177.245 236.41 175.776 238.103 175.228C239.501 174.776 241.082 174.845 242.39 175.54C243.822 176.302 244.719 177.775 246.096 178.632C247.557 179.542 249.246 179.572 250.728 178.689C252.168 177.832 253.156 176.576 254.869 176.213C256.378 175.893 258.025 176.182 259.318 177.028C260.623 177.881 261.351 179.403 262.875 179.962C264.646 180.611 266.166 179.637 267.469 178.517C268.766 177.401 270.11 176.726 271.865 176.786C273.664 176.847 274.918 177.702 276.152 178.921C277.39 180.143 278.795 180.91 280.57 180.64C282.065 180.414 283.364 179.556 284.658 178.829C285.799 178.187 287.064 177.52 288.385 178.013C289.779 178.532 290.831 179.815 291.892 180.801C293.046 181.872 294.316 182.907 295.858 183.345C298.13 183.991 300.26 183.059 302.478 182.699C303.749 182.492 305.713 182.659 305.95 184.212C306.224 186.001 308.943 185.241 308.671 183.462C308.103 179.748 303.569 179.522 300.723 180.197Z" fill="#321C27"/>
<path d="M300.723 197.846C298.901 198.278 297.163 198.799 295.467 197.735C294.206 196.944 293.23 195.766 292.114 194.796C291.03 193.854 289.823 193.009 288.381 192.754C286.747 192.464 285.218 192.987 283.783 193.74C282.607 194.357 281.079 195.695 279.663 195.537C278.847 195.445 278.298 194.717 277.757 194.176C277.116 193.535 276.402 192.96 275.586 192.554C272.242 190.89 268.514 191.553 265.739 193.939C265.234 194.372 264.536 195.194 263.802 194.943C263.055 194.688 262.481 193.658 261.915 193.14C260.657 191.989 259.073 191.268 257.39 191.027C255.695 190.784 253.976 191.005 252.42 191.731C251.661 192.085 251.011 192.584 250.364 193.111C249.753 193.608 248.991 194.37 248.128 194.147C247.421 193.965 246.837 193.306 246.335 192.816C245.704 192.201 245.082 191.583 244.353 191.083C242.99 190.147 241.24 189.709 239.597 189.778C237.642 189.859 235.728 190.585 234.295 191.933C233.672 192.519 233.097 193.671 232.21 193.844C231.206 194.039 229.882 193.269 228.866 193.138C224.326 192.554 220.504 195.969 217.559 198.97C216.287 200.267 218.28 202.264 219.554 200.965C221.933 198.541 225.27 195.177 229.024 196.017C230.916 196.44 232.603 197.205 234.356 195.899C235.704 194.894 236.41 193.425 238.103 192.877C239.501 192.425 241.082 192.494 242.39 193.189C243.822 193.951 244.719 195.424 246.096 196.281C247.557 197.191 249.246 197.221 250.728 196.338C252.168 195.481 253.156 194.225 254.869 193.862C256.378 193.542 258.025 193.831 259.318 194.677C260.623 195.53 261.351 197.052 262.875 197.611C264.646 198.26 266.166 197.286 267.469 196.165C268.766 195.05 270.11 194.375 271.865 194.435C273.664 194.496 274.918 195.351 276.152 196.57C277.39 197.792 278.795 198.559 280.57 198.289C282.065 198.063 283.364 197.205 284.658 196.478C285.799 195.836 287.064 195.169 288.385 195.662C289.779 196.181 290.831 197.464 291.892 198.45C293.046 199.521 294.316 200.556 295.858 200.994C298.13 201.64 300.26 200.708 302.478 200.348C303.749 200.141 305.713 200.308 305.95 201.861C306.224 203.65 308.943 202.89 308.671 201.111C308.103 197.397 303.569 197.171 300.723 197.846Z" fill="#321C27"/>
<path d="M254.854 209.326C252.872 209.442 251.012 210.302 249.382 211.392C247.96 212.343 246.93 213.462 245.159 212.732C243.746 212.149 242.53 211.194 241.076 210.681C237.392 209.382 234.78 211.791 232.306 214.151C231.264 215.145 230.106 216.05 228.833 216.002C227.618 215.956 226.414 215.625 225.217 215.431C222.195 214.94 218.241 214.933 217.626 218.76C217.34 220.536 220.058 221.3 220.346 219.51C220.502 218.543 220.849 218.116 221.835 217.991C223.018 217.842 224.269 218.109 225.429 218.32C228.111 218.809 230.378 219.208 232.735 217.478C234.827 215.942 236.815 212.496 239.819 213.244C242.569 213.929 244.576 216.509 247.672 215.672C249.593 215.152 251.004 213.477 252.825 212.689C255.006 211.746 256.999 212.131 258.739 213.737C260.071 214.967 262.072 212.977 260.734 211.742C259.11 210.243 257.12 209.194 254.854 209.326Z" fill="#321C27"/>
<path d="M199.846 253.3C199.841 253.3 199.837 253.301 199.832 253.301C198.037 253.317 198.034 256.104 199.832 256.12C199.837 256.12 199.841 256.121 199.846 256.121C201.662 256.121 201.665 253.3 199.846 253.3Z" fill="#321C27"/>
</g>
</svg>
