<svg width="25" height="22" viewBox="0 0 25 22" fill="none" xmlns="http://www.w3.org/2000/svg">
<path d="M12.5 22L10.76 20.4414C8.74 18.6231 7.07 17.0545 5.75 15.7357C4.43 14.4169 3.38 13.233 2.6 12.1839C1.82 11.1349 1.275 10.1708 0.965 9.29155C0.655 8.41235 0.5 7.51317 0.5 6.59401C0.5 4.71571 1.13 3.14714 2.39 1.88828C3.65 0.629428 5.22 0 7.1 0C8.14 0 9.13 0.2198 10.07 0.659401C11.01 1.099 11.82 1.71844 12.5 2.51771C13.18 1.71844 13.99 1.099 14.93 0.659401C15.87 0.2198 16.86 0 17.9 0C19.78 0 21.35 0.629428 22.61 1.88828C23.87 3.14714 24.5 4.71571 24.5 6.59401C24.5 7.51317 24.345 8.41235 24.035 9.29155C23.725 10.1708 23.18 11.1349 22.4 12.1839C21.62 13.233 20.57 14.4169 19.25 15.7357C17.93 17.0545 16.26 18.6231 14.24 20.4414L12.5 22ZM12.5 18.7629C14.42 17.0445 16 15.5708 17.24 14.342C18.48 13.1131 19.46 12.0441 20.18 11.1349C20.9 10.2257 21.4 9.41644 21.68 8.70708C21.96 7.99773 22.1 7.29337 22.1 6.59401C22.1 5.3951 21.7 4.396 20.9 3.59673C20.1 2.79746 19.1 2.39782 17.9 2.39782C16.96 2.39782 16.09 2.66258 15.29 3.1921C14.49 3.72162 13.94 4.396 13.64 5.21526H11.36C11.06 4.396 10.51 3.72162 9.71 3.1921C8.91 2.66258 8.04 2.39782 7.1 2.39782C5.9 2.39782 4.9 2.79746 4.1 3.59673C3.3 4.396 2.9 5.3951 2.9 6.59401C2.9 7.29337 3.04 7.99773 3.32 8.70708C3.6 9.41644 4.1 10.2257 4.82 11.1349C5.54 12.0441 6.52 13.1131 7.76 14.342C9 15.5708 10.58 17.0445 12.5 18.7629Z" fill="#1F2937"/>
</svg>
